<svg width="32" height="32" viewBox="0 0 32 32" fill="none" xmlns="http://www.w3.org/2000/svg">
<path d="M11.9993 22.6667C11.9993 23.4 11.3993 24 10.666 24C9.93268 24 9.33268 23.4 9.33268 22.6667C9.33268 21.9333 9.93268 21.3333 10.666 21.3333C11.3993 21.3333 11.9993 21.9333 11.9993 22.6667ZM15.9993 21.3333C15.266 21.3333 14.666 21.9333 14.666 22.6667C14.666 23.4 15.266 24 15.9993 24C16.7327 24 17.3327 23.4 17.3327 22.6667C17.3327 21.9333 16.7327 21.3333 15.9993 21.3333ZM21.3327 21.3333C20.5993 21.3333 19.9993 21.9333 19.9993 22.6667C19.9993 23.4 20.5993 24 21.3327 24C22.066 24 22.666 23.4 22.666 22.6667C22.666 21.9333 22.066 21.3333 21.3327 21.3333ZM25.3327 16V18.6667H6.66602V16C6.66602 11.2933 10.146 7.42667 14.666 6.77333V4H17.3327V6.77333C21.8527 7.42667 25.3327 11.2933 25.3327 16ZM22.666 16C22.666 12.32 19.6793 9.33333 15.9993 9.33333C12.3193 9.33333 9.33268 12.32 9.33268 16H22.666ZM10.666 25.3333C9.93268 25.3333 9.33268 25.9333 9.33268 26.6667C9.33268 27.4 9.93268 28 10.666 28C11.3993 28 11.9993 27.4 11.9993 26.6667C11.9993 25.9333 11.3993 25.3333 10.666 25.3333ZM15.9993 25.3333C15.266 25.3333 14.666 25.9333 14.666 26.6667C14.666 27.4 15.266 28 15.9993 28C16.7327 28 17.3327 27.4 17.3327 26.6667C17.3327 25.9333 16.7327 25.3333 15.9993 25.3333ZM21.3327 25.3333C20.5993 25.3333 19.9993 25.9333 19.9993 26.6667C19.9993 27.4 20.5993 28 21.3327 28C22.066 28 22.666 27.4 22.666 26.6667C22.666 25.9333 22.066 25.3333 21.3327 25.3333Z" fill="black"/>
</svg>
